<svg xmlns="http://www.w3.org/2000/svg" xml:space="preserve" width="512" height="512"><g style="display:inline"><path d="M76 152v208l36 20.8 36-20.8v41.6l36 20.8 36-20.8v41.6l36 20.8V256Z" style="display:inline;fill:#01abe9;fill-opacity:1"/><path d="M112 214.4v166.4l36-20.8V235.2ZM184 256v166.4l36-20.8v41.6l.1-166.2Z" style="display:inline;fill:#0287bf;fill-opacity:1"/></g><g style="display:inline"><path d="M256 48 76 152l180 104 180-104Zm-36 104v41.6l-36-20.8zm72 0 36 20.8-36 20.8z" style="display:inline;fill:#5fcaf8;fill-opacity:1"/><path d="M256 89.6v124.8l36-20.8V152l36 20.8 36-20.8Z" style="fill:#01abe9;fill-opacity:1"/><path d="M256 89.6 148 152l36 20.8 36-20.8v41.6l36 20.8zM256 131.2v83.2l36-20.8V152Z" style="display:inline;fill:#0287bf;fill-opacity:1"/><path d="M256 131.2 220 152v41.6l36 20.8z" style="fill:#01abe9;fill-opacity:1"/></g><g style="display:inline"><path d="M436 152 256 256v208l36-20.8V360l54.1-31.1 18 31.1 35.9 20.8 36-20.8-36-62.3 36-20.7Z" style="display:inline;fill:#0287bf;fill-opacity:1"/><path d="M400 214.4V256l-108 62.6V277Z" style="display:inline;fill:#5fcaf8;fill-opacity:1"/><path d="m399.996 214.398-.004 41.594-35.894-20.785z" style="display:inline;fill:#01abe9;fill-opacity:1"/><path d="m364.1 318.6 35.9 62.2-35.9-20.8-18-31.1Z" style="display:inline;fill:#01abe9;fill-opacity:1;stroke:none;stroke-opacity:1"/></g></svg>